<?xml version="1.0" standalone="no"?>
<!DOCTYPE svg PUBLIC "-//W3C//DTD SVG 20010904//EN"
 "http://www.w3.org/TR/2001/REC-SVG-20010904/DTD/svg10.dtd">
<svg version="1.0" xmlns="http://www.w3.org/2000/svg"
 width="72000.000000pt" height="72000.000000pt" viewBox="0 0 72000.000000 72000.000000"
 preserveAspectRatio="xMidYMid meet">
<metadata>
Created by potrace 1.15, written by Peter Selinger 2001-2017
</metadata>
<g transform="translate(0.000000,72000.000000) scale(5.625000,-11.250000)"
fill="#ee4c2c" stroke="none">
<path d="M2069 4892 c-388 -389 -728 -736 -756 -772 -175 -225 -302 -496 -359
-765 -70 -331 -51 -667 57 -990 115 -344 324 -645 615 -882 350 -285 839 -437
1296 -402 754 57 1397 553 1637 1264 211 626 78 1308 -353 1823 -41 49 -81 93
-88 100 -11 9 -46 -21 -177 -152 l-163 -163 57 -64 c124 -141 223 -311 280
-482 51 -154 69 -267 69 -447 -1 -381 -128 -698 -392 -971 -211 -220 -482
-364 -771 -413 -124 -21 -358 -21 -482 0 -196 33 -406 121 -578 242 -107 76
-268 239 -338 342 -287 426 -319 960 -87 1423 93 185 117 211 701 797 l553
556 0 319 c0 176 -4 326 -8 332 -5 9 -240 -220 -713 -695z"/>
<path d="M3372 4846 c-129 -42 -196 -169 -157 -302 22 -76 96 -153 168 -173
191 -54 356 123 291 311 -43 128 -181 203 -302 164z"/>
<path d="M9890 3290 l0 -1470 175 0 175 0 0 1470 0 1470 -175 0 -175 0 0
-1470z"/>
<path d="M9059 4737 c-86 -32 -139 -85 -167 -166 -63 -182 122 -368 305 -307
170 56 228 248 119 391 -52 68 -182 110 -257 82z"/>
<path d="M7664 4477 c-25 -22 -27 -33 -68 -340 -23 -174 -45 -320 -50 -324 -4
-4 -78 -17 -164 -28 l-157 -21 -3 -82 c-3 -76 -1 -84 22 -107 24 -24 29 -25
160 -25 l135 0 4 -687 c3 -597 5 -695 19 -740 50 -164 141 -259 293 -305 99
-31 259 -30 369 1 87 24 213 86 263 129 l31 27 -56 89 c-70 109 -81 118 -125
92 -108 -66 -138 -76 -217 -76 -99 0 -152 26 -195 95 l-30 48 -3 664 -3 663
526 0 525 0 0 -865 0 -865 175 0 175 0 0 990 0 990 -700 0 -700 0 0 350 0 350
-99 0 c-90 0 -103 -2 -127 -23z"/>
<path d="M2285 3873 c-49 -11 -115 -35 -121 -45 -3 -5 76 -93 177 -194 l184
-184 -130 -130 -130 -130 -192 186 c-215 207 -199 200 -228 88 -29 -112 -14
-258 38 -375 70 -156 232 -291 397 -330 76 -17 194 -15 264 5 l59 17 406 -404
c223 -223 416 -408 428 -412 12 -3 30 -2 40 4 31 17 254 241 262 264 5 12 4
33 -1 47 -5 14 -189 205 -408 425 l-400 400 16 50 c22 70 22 215 0 290 -62
212 -234 378 -433 420 -64 14 -184 18 -228 8z"/>
<path d="M11285 3863 c-76 -12 -157 -38 -235 -75 -108 -52 -220 -160 -268
-258 -102 -208 -70 -436 82 -585 86 -85 193 -137 461 -224 232 -76 296 -104
363 -158 60 -49 85 -103 86 -183 1 -210 -161 -340 -422 -340 -146 1 -255 36
-412 133 -80 50 -112 57 -149 31 -27 -20 -122 -164 -115 -175 2 -5 43 -34 90
-65 144 -96 286 -146 466 -165 128 -13 289 0 395 32 309 95 486 334 470 634
-6 110 -30 179 -91 256 -84 106 -206 170 -527 275 -211 69 -289 104 -348 158
-77 72 -96 142 -65 246 44 148 246 241 462 212 100 -14 152 -31 281 -94 127
-63 137 -61 203 37 26 39 47 76 47 83 1 17 -110 97 -191 138 -128 64 -224 86
-398 89 -85 2 -168 1 -185 -2z"/>
<path d="M5172 3098 l3 -743 28 -88 c15 -48 40 -114 56 -146 133 -262 440
-382 781 -305 129 29 317 142 430 259 l45 46 16 -122 c15 -106 20 -125 43
-148 25 -25 33 -26 146 -30 l120 -3 0 1011 0 1011 -170 0 -170 0 0 -744 0
-743 -78 -75 c-142 -135 -275 -197 -445 -206 -242 -12 -379 79 -443 293 -16
54 -18 127 -21 768 l-4 707 -170 0 -170 0 3 -742z"/>
</g>
</svg>
