<?xml version="1.0" standalone="no"?>
<!DOCTYPE svg PUBLIC "-//W3C//DTD SVG 20010904//EN"
 "http://www.w3.org/TR/2001/REC-SVG-20010904/DTD/svg10.dtd">
<svg version="1.0" xmlns="http://www.w3.org/2000/svg"
 width="500.000000pt" height="500.000000pt" viewBox="0 0 500.000000 500.000000"
 preserveAspectRatio="xMidYMid meet">
<metadata>
Created by potrace 1.15, written by Peter Selinger 2001-2017
</metadata>
<g transform="translate(0.000000,500.000000) scale(0.100000,-0.100000)"
fill="#ee4c2c" stroke="none">
<path d="M1924 3678 c-505 -507 -579 -585 -637 -674 -109 -165 -183 -348 -223
-549 -25 -123 -25 -385 -1 -510 117 -602 547 -1043 1148 -1177 88 -19 132 -23
289 -23 157 0 201 4 289 23 601 134 1031 575 1148 1177 24 125 24 387 -1 510
-53 269 -179 527 -344 705 l-61 65 -125 -124 -125 -124 46 -51 c106 -118 196
-288 240 -453 23 -88 26 -116 26 -273 1 -157 -2 -185 -25 -271 -55 -202 -146
-365 -281 -501 -215 -218 -481 -328 -787 -328 -306 0 -572 110 -787 328 -135
136 -226 299 -281 501 -23 86 -26 114 -25 271 0 157 3 185 26 273 29 111 94
254 157 348 27 40 208 230 477 499 l433 436 -2 247 -3 248 -571 -573z"/>
<path d="M2957 3665 c-50 -17 -85 -50 -108 -100 -48 -105 11 -223 126 -254
136 -36 261 105 216 242 -15 45 -78 102 -128 116 -48 14 -59 13 -106 -4z"/>
<path d="M2066 2894 l-49 -16 141 -141 c78 -78 142 -147 142 -152 0 -13 -192
-205 -205 -205 -6 0 -73 63 -150 140 -77 77 -142 140 -146 140 -14 0 -39 -108
-39 -170 0 -295 282 -509 563 -428 l38 11 322 -321 c178 -177 329 -322 336
-322 20 0 218 198 225 223 4 18 -50 77 -315 343 l-321 321 18 73 c15 64 16 83
5 144 -16 96 -50 165 -113 232 -64 68 -107 97 -187 124 -73 24 -192 26 -265 4z"/>
</g>
</svg>
